<svg width="9" height="11" viewBox="0 0 9 11" fill="none" xmlns="http://www.w3.org/2000/svg">
<path fill-rule="evenodd" clip-rule="evenodd" d="M2.30338 3.10925V7.76987C3.65464 6.98943 4.97794 6.22504 6.33792 5.4391C4.97335 4.65133 3.65372 3.88877 2.30338 3.10925ZM0.646739 5.44117C0.646739 4.22283 0.645822 3.00448 0.646739 1.78568C0.647656 1.00158 1.29188 0.625571 1.96912 1.01579C4.07145 2.22726 6.17331 3.4401 8.27381 4.65477C8.99506 5.07159 8.99598 5.80755 8.27793 6.22253C6.18386 7.43308 4.08887 8.64225 1.99296 9.85005C1.28546 10.2577 0.647198 9.88811 0.646739 9.07374C0.645822 7.86319 0.646739 6.65218 0.646739 5.44117Z" fill="#404040"/>
</svg>
