<svg width="24" height="25" viewBox="0 0 24 25" fill="none" xmlns="http://www.w3.org/2000/svg">
<path fill-rule="evenodd" clip-rule="evenodd" d="M11.996 22.5965C14.8822 22.5965 17.7684 22.5978 20.6546 22.5955C21.5222 22.5951 22.0906 22.0253 22.0947 21.1595C22.0974 20.6053 22.1038 20.0507 22.0883 19.497C22.0851 19.3833 22.0213 19.2357 21.9352 19.1656C20.8164 18.2544 19.6893 17.3537 18.5627 16.453C18.2267 16.1844 17.9829 16.1858 17.6359 16.4535C16.7509 17.1364 15.8695 17.8235 14.9839 18.5056C13.8257 19.3966 12.5291 19.3027 11.5074 18.2585C10.6049 17.3363 9.70153 16.4154 8.7986 15.4941C8.43238 15.1201 8.15921 15.1068 7.75495 15.4455C5.98987 16.9247 4.23671 18.4176 2.45238 19.8733C2.04491 20.2061 1.86249 20.5315 1.88999 21.0674C1.94041 22.0501 2.44459 22.596 3.42315 22.5965C6.28092 22.5969 9.13823 22.5965 11.996 22.5965ZM1.90373 17.9396C2.01786 17.848 2.08386 17.7971 2.14757 17.743C3.60831 16.5109 5.06951 15.2788 6.52933 14.0454C7.68573 13.0682 9.01997 13.1204 10.0943 14.1907C11.0018 15.0946 11.9057 16.0021 12.8118 16.9069C13.1661 17.2608 13.4045 17.2796 13.8161 16.9821C14.769 16.2941 15.7168 15.5997 16.6725 14.9163C17.5855 14.264 18.7084 14.2796 19.6077 14.9488C19.8451 15.1257 20.0725 15.316 20.3044 15.5002C20.8846 15.9618 21.4654 16.4234 22.0951 16.9244V16.5623C22.0951 12.3568 22.0956 8.15129 22.0951 3.94581C22.0951 2.9397 21.5612 2.40434 20.5588 2.40434C14.8528 2.40388 9.14693 2.40388 3.44102 2.40434C2.43954 2.40434 1.90419 2.94062 1.90419 3.94489C1.90373 8.49415 1.90373 13.0439 1.90373 17.5936C1.90373 17.6889 1.90373 17.7838 1.90373 17.9396ZM21.1198 24.4321H2.8791C2.84426 24.417 2.81081 24.3954 2.7746 24.3885C1.10393 24.0668 0.069912 22.8228 0.0694536 21.1209C0.0676203 15.3757 0.0671619 9.63063 0.0722037 3.8855C0.072662 3.60132 0.0951209 3.30934 0.160664 3.03387C0.518172 1.53456 1.77678 0.570165 3.36769 0.569706C9.10294 0.567414 14.8382 0.568331 20.5739 0.569248C22.5718 0.569706 23.9299 1.93517 23.9303 3.9428C23.9313 7.10688 23.9308 10.271 23.9308 13.435C23.9308 16.0161 23.934 18.5971 23.929 21.1782C23.9262 22.6394 23.0457 23.8555 21.6978 24.2795C21.508 24.339 21.3128 24.3817 21.1198 24.4321Z" fill="#404040"/>
</svg>
